<?xml version="1.0" standalone="no"?>
<!DOCTYPE svg PUBLIC "-//W3C//DTD SVG 20010904//EN"
 "http://www.w3.org/TR/2001/REC-SVG-20010904/DTD/svg10.dtd">
<svg version="1.0" xmlns="http://www.w3.org/2000/svg"
 width="500.000000pt" height="500.000000pt" viewBox="0 0 500.000000 500.000000"
 preserveAspectRatio="xMidYMid meet">

<g transform="translate(0.000000,500.000000) scale(0.100000,-0.100000)"
fill="#000000" stroke="none">
<path d="M3550 4996 c0 -2 41 -57 91 -122 103 -133 168 -259 193 -371 20 -89
20 -246 1 -448 -10 -112 -11 -152 -2 -157 16 -10 87 -21 93 -15 7 7 49 158 76
272 26 113 28 272 4 405 -27 152 -57 273 -73 299 -20 32 -144 87 -250 111
-130 30 -133 31 -133 26z"/>
<path d="M1341 4975 c-125 -28 -239 -74 -273 -111 -18 -21 -86 -343 -95 -452
-3 -41 1 -103 11 -162 20 -115 73 -340 85 -359 6 -9 20 -11 47 -7 66 11 64 5
48 176 -21 223 -19 358 6 455 35 137 105 266 220 404 28 33 50 63 50 66 0 8
-28 5 -99 -10z"/>
<path d="M1484 4953 c-51 -50 -157 -215 -203 -315 -75 -162 -100 -333 -81
-562 13 -161 17 -171 100 -239 l55 -46 7 42 c3 23 7 63 7 88 1 74 31 227 63
329 58 181 152 354 277 509 28 35 50 68 49 73 -5 12 -211 158 -225 158 -7 0
-29 -16 -49 -37z"/>
<path d="M3353 4916 c-55 -41 -103 -78 -107 -84 -3 -5 20 -43 52 -83 212 -271
310 -524 338 -876 l6 -83 60 47 c33 26 66 60 74 75 21 40 31 385 15 495 -22
152 -73 266 -213 473 -38 56 -96 110 -118 110 -4 0 -52 -33 -107 -74z"/>
<path d="M1640 4977 c0 -10 181 -133 237 -161 66 -33 200 -86 216 -86 19 1
-122 128 -186 166 -31 20 -83 45 -114 55 -57 21 -153 37 -153 26z"/>
<path d="M3243 4965 c-67 -18 -122 -46 -198 -100 -59 -42 -166 -145 -152 -145
4 0 29 11 55 24 26 13 65 29 87 36 65 21 145 64 230 125 44 31 84 61 90 66 14
14 -52 10 -112 -6z"/>
<path d="M974 4818 c-43 -46 -182 -267 -198 -314 -33 -96 -31 -151 17 -432 25
-145 48 -266 51 -270 7 -6 74 16 155 50 37 16 42 21 37 41 -88 310 -90 322
-90 512 -1 164 2 190 27 292 33 130 33 157 1 121z"/>
<path d="M4000 4821 c0 -10 12 -70 27 -132 23 -99 27 -136 28 -279 0 -176 -16
-276 -71 -453 -14 -42 -22 -81 -19 -86 5 -9 159 -71 176 -71 18 0 28 40 65
250 59 339 52 416 -51 587 -53 88 -136 202 -147 203 -5 0 -8 -8 -8 -19z"/>
<path d="M1763 4723 c-93 -95 -228 -314 -278 -453 -36 -100 -85 -349 -85 -433
0 -78 14 -118 60 -171 32 -35 87 -72 96 -63 3 2 9 75 14 161 17 277 33 306
283 515 48 41 92 82 97 92 19 34 10 75 -48 229 -68 179 -76 186 -139 123z"/>
<path d="M3146 4726 c-53 -127 -106 -280 -106 -306 0 -47 12 -63 118 -149 226
-184 265 -261 279 -548 3 -68 10 -123 14 -123 16 0 105 83 126 119 28 44 29
92 7 239 -26 176 -66 317 -124 432 -92 183 -233 370 -279 370 -14 0 -25 -11
-35 -34z"/>
<path d="M1931 4658 c75 -204 112 -289 129 -298 10 -6 64 -10 119 -10 79 0
101 3 101 14 0 30 -83 232 -103 252 -19 19 -247 124 -269 124 -4 0 6 -37 23
-82z"/>
<path d="M2960 4689 c-63 -27 -125 -59 -137 -72 -20 -21 -103 -224 -103 -253
0 -18 177 -20 214 -2 20 8 35 34 65 113 82 208 101 265 88 264 -6 0 -64 -23
-127 -50z"/>
<path d="M650 4328 c-83 -165 -92 -221 -61 -349 13 -52 29 -105 36 -119 22
-40 142 -153 155 -145 30 19 28 54 -17 276 -39 192 -46 241 -46 342 1 64 -1
117 -2 117 -2 0 -31 -55 -65 -122z"/>
<path d="M4285 4364 c7 -82 -9 -191 -75 -502 -19 -88 -19 -96 -4 -129 l17 -34
69 68 c82 81 102 119 125 237 16 84 16 92 0 155 -20 74 -72 190 -112 248 l-27
38 7 -81z"/>
<path d="M2732 4310 c-18 -4 -35 -10 -37 -12 -3 -2 -13 -50 -22 -106 -13 -75
-15 -107 -7 -120 13 -20 106 -59 163 -68 36 -6 40 -4 55 23 20 40 68 230 64
257 -2 17 -12 22 -48 28 -59 9 -127 8 -168 -2z"/>
<path d="M2053 4293 c-8 -20 51 -259 69 -280 15 -18 32 -17 121 13 69 23 81
30 93 59 12 28 11 43 -9 126 l-23 94 -122 3 c-109 2 -123 1 -129 -15z"/>
<path d="M1835 4194 c-144 -106 -162 -128 -201 -249 -22 -66 -27 -104 -31
-220 -4 -112 -2 -144 10 -159 19 -26 27 -19 78 66 52 86 129 165 263 272 54
43 100 85 103 93 13 33 -55 287 -78 290 -8 1 -72 -41 -144 -93z"/>
<path d="M3001 4273 c-17 -34 -70 -266 -63 -279 4 -7 46 -41 92 -75 117 -86
207 -178 274 -282 31 -48 61 -87 66 -87 52 0 33 329 -27 463 -36 80 -166 197
-290 261 -40 20 -40 20 -52 -1z"/>
<path d="M2397 4193 c-13 -3 -17 -11 -14 -26 17 -72 29 -184 25 -236 -4 -52
-17 -87 -99 -248 -87 -175 -98 -191 -150 -233 -31 -25 -79 -53 -105 -63 -61
-23 -205 -33 -260 -18 -24 6 -87 45 -149 91 -126 94 -159 113 -246 135 -67 18
-209 16 -274 -3 l-30 -9 45 -12 c262 -70 360 -122 412 -218 37 -66 42 -128 24
-257 -32 -218 -25 -246 98 -409 145 -192 138 -176 211 -457 36 -140 80 -307
97 -370 17 -63 38 -167 48 -230 l17 -115 14 45 c8 27 13 92 13 165 0 116 -1
125 -46 260 -57 169 -76 259 -88 419 -15 185 -28 216 -159 361 -45 50 -92 113
-106 140 -30 61 -51 186 -40 241 l8 39 9 -35 c19 -74 31 -89 138 -169 188
-141 193 -150 195 -406 3 -209 19 -326 80 -585 48 -206 51 -241 26 -409 -26
-174 -21 -216 41 -310 88 -135 187 -210 276 -211 59 0 82 14 82 50 0 61 -68
101 -156 93 -49 -5 -52 -4 -85 35 -40 48 -85 130 -75 139 3 4 19 2 34 -3 26
-9 39 -28 76 -118 16 -37 18 -38 54 -30 20 4 57 10 82 13 43 6 44 7 60 58 8
28 18 54 21 57 3 4 11 -19 18 -49 13 -58 13 -58 91 -69 19 -2 47 -8 63 -11 25
-7 29 -4 48 41 11 27 25 59 31 71 11 23 64 50 75 39 11 -10 -37 -94 -79 -139
-35 -37 -40 -39 -80 -34 -59 8 -94 -1 -128 -33 -36 -34 -41 -83 -11 -100 32
-16 109 -12 150 10 53 27 189 174 218 237 34 74 39 136 17 229 -32 143 -26
258 28 494 71 310 81 381 75 549 -8 224 5 251 197 394 117 89 136 113 136 178
0 16 5 29 10 29 16 0 12 -139 -6 -205 -20 -81 -47 -124 -143 -230 -121 -135
-131 -159 -147 -337 -17 -183 -34 -270 -85 -420 -47 -142 -63 -241 -55 -328 7
-70 24 -145 32 -138 2 3 9 43 14 89 13 103 192 806 221 869 12 25 63 101 113
170 51 69 100 136 109 150 31 48 37 108 22 220 -32 234 -31 259 22 338 59 87
167 145 359 193 l89 23 -45 13 c-25 8 -85 14 -135 14 -138 2 -230 -37 -388
-163 -84 -67 -137 -88 -222 -88 -119 0 -227 41 -300 115 -54 53 -210 360 -221
433 -6 41 6 182 23 265 5 26 4 27 -36 27 -28 0 -47 -6 -61 -20 l-20 -20 -20
20 c-19 19 -44 23 -83 13z m116 -1030 c11 -435 16 -459 104 -450 24 2 40 1 37
-4 -3 -5 -11 -9 -19 -9 -29 0 -66 -25 -87 -58 -20 -32 -22 -54 -29 -296 -4
-143 -8 -283 -8 -309 -1 -29 -5 -46 -11 -42 -6 4 -10 68 -10 158 0 182 -16
429 -31 475 -8 24 -23 39 -57 57 l-47 24 36 1 c57 0 70 17 80 101 5 41 12 199
16 352 3 152 9 277 13 277 4 0 10 -125 13 -277z"/>
<path d="M508 3980 l-28 -49 47 -21 c25 -11 48 -18 51 -15 7 6 -28 135 -37
135 -3 0 -18 -23 -33 -50z"/>
<path d="M4440 3988 c-6 -24 -15 -55 -20 -70 -6 -18 -5 -28 1 -28 12 0 89 39
89 45 0 12 -45 95 -52 95 -4 0 -12 -19 -18 -42z"/>
<path d="M2227 3976 c-54 -18 -100 -36 -103 -39 -9 -9 18 -167 28 -167 32 0
208 189 208 224 0 23 -21 20 -133 -18z"/>
<path d="M2640 3991 c0 -19 188 -221 206 -221 11 0 38 159 29 168 -7 7 -165
57 -203 65 -27 5 -32 3 -32 -12z"/>
<path d="M1995 3878 c-133 -97 -325 -311 -325 -362 0 -21 2 -21 104 14 105 35
284 119 310 145 16 17 17 29 11 114 -7 104 -13 141 -24 141 -3 0 -37 -23 -76
-52z"/>
<path d="M2916 3907 c-3 -12 -8 -65 -12 -117 -6 -91 -5 -96 17 -117 27 -25
389 -184 401 -177 29 18 -43 127 -166 250 -84 83 -207 184 -226 184 -4 0 -10
-10 -14 -23z"/>
<path d="M198 3899 c-14 -6 -28 -15 -30 -22 -2 -7 -1 -60 2 -119 4 -95 8 -109
29 -132 14 -14 30 -26 37 -26 12 0 34 120 34 188 0 21 9 55 20 77 11 22 20 41
20 42 0 7 -88 0 -112 -8z"/>
<path d="M2640 3897 c0 -9 36 -89 80 -178 61 -121 85 -160 98 -157 24 5 37 71
23 117 -14 42 -201 246 -201 218z"/>
<path d="M4692 3904 c28 -58 37 -96 47 -194 7 -63 14 -116 16 -118 2 -2 18 10
35 25 32 28 33 33 42 138 11 133 4 145 -88 153 -31 3 -55 1 -52 -4z"/>
<path d="M2257 3802 c-53 -54 -99 -110 -102 -125 -8 -29 0 -83 15 -107 8 -12
11 -12 27 3 21 18 169 314 161 322 -2 3 -48 -39 -101 -93z"/>
<path d="M347 3858 c-29 -29 -74 -200 -63 -242 9 -36 49 -76 76 -76 26 0 58
70 70 155 8 51 14 65 44 90 l35 31 -42 26 c-64 41 -92 44 -120 16z"/>
<path d="M501 3854 c22 -25 106 -70 114 -62 13 13 -88 88 -119 88 -18 0 -18
-2 5 -26z"/>
<path d="M4444 3854 c-38 -26 -66 -56 -59 -62 8 -8 92 37 114 62 23 25 24 26
4 26 -11 0 -38 -12 -59 -26z"/>
<path d="M4542 3849 c-23 -17 -42 -33 -42 -36 0 -2 13 -15 28 -28 23 -19 31
-37 40 -89 15 -90 45 -156 72 -156 26 0 67 40 76 74 3 15 -4 68 -20 128 -36
144 -71 168 -154 107z"/>
<path d="M1156 3848 c-9 -5 -14 -14 -10 -19 10 -17 164 -129 207 -151 l40 -20
-49 62 c-80 102 -150 149 -188 128z"/>
<path d="M65 3810 l-39 -40 24 -77 c31 -102 45 -123 81 -123 38 0 43 13 25 68
-9 26 -20 81 -26 122 -6 41 -14 78 -18 82 -5 5 -25 -10 -47 -32z"/>
<path d="M3704 3768 c-112 -116 -118 -126 -53 -88 91 54 199 141 199 162 0 4
-15 8 -33 8 -28 0 -44 -12 -113 -82z"/>
<path d="M4876 3828 c-3 -13 -6 -44 -6 -71 0 -26 -9 -73 -20 -104 -26 -76 -26
-83 9 -83 40 0 61 29 91 124 l24 76 -39 40 c-22 22 -42 40 -46 40 -4 0 -9 -10
-13 -22z"/>
<path d="M1024 3808 c-37 -9 -59 -32 -51 -53 4 -8 51 -37 106 -64 l100 -51 71
8 71 7 -108 76 c-114 80 -139 90 -189 77z"/>
<path d="M3880 3797 c-25 -13 -175 -121 -195 -140 -6 -6 22 -8 80 -5 71 3 103
10 150 31 75 35 126 73 119 91 -13 34 -107 48 -154 23z"/>
<path d="M4351 3738 c-43 -21 -141 -110 -141 -129 0 -12 61 13 101 41 26 19
64 63 83 98 9 16 8 16 -43 -10z"/>
<path d="M610 3741 c0 -32 123 -131 162 -131 17 0 17 3 -4 31 -13 17 -47 49
-77 70 -53 38 -81 48 -81 30z"/>
<path d="M4397 3690 c-61 -59 -62 -59 -41 -74 12 -9 35 -39 52 -68 37 -65 99
-138 117 -138 18 0 43 37 55 82 9 31 5 50 -25 135 -34 95 -53 123 -83 123 -8
0 -42 -27 -75 -60z"/>
<path d="M480 3721 c-5 -11 -10 -25 -10 -31 0 -6 -14 -46 -31 -88 -26 -67 -29
-82 -20 -112 10 -35 44 -81 59 -79 11 0 107 120 125 154 8 17 25 39 36 49 l22
20 -53 53 c-42 42 -59 53 -85 53 -22 0 -36 -6 -43 -19z"/>
<path d="M866 3704 c-20 -19 -20 -26 -1 -72 30 -71 146 -162 208 -162 23 0 22
8 -13 59 -17 24 -30 48 -30 53 0 4 14 17 32 28 l32 19 -94 45 c-104 51 -112
53 -134 30z"/>
<path d="M4060 3706 c-20 -8 -62 -28 -94 -46 l-57 -33 30 -18 c17 -10 31 -22
31 -25 0 -4 -14 -29 -31 -56 -17 -27 -29 -51 -27 -54 11 -11 123 41 159 73 35
32 79 104 79 130 0 15 -29 43 -43 42 -7 0 -28 -6 -47 -13z"/>
<path d="M4965 3653 c-8 -20 -23 -57 -32 -83 -16 -46 -16 -48 6 -79 15 -21 27
-29 33 -23 11 11 25 222 15 222 -4 0 -14 -16 -22 -37z"/>
<path d="M12 3579 c6 -119 16 -136 51 -84 l26 38 -26 56 c-14 31 -27 64 -30
74 -3 9 -10 17 -16 17 -6 0 -8 -36 -5 -101z"/>
<path d="M2055 3613 c-62 -38 -162 -84 -248 -113 -43 -14 -78 -30 -78 -35 0
-5 19 -17 43 -26 112 -46 313 3 342 83 9 26 0 119 -12 117 -4 0 -25 -12 -47
-26z"/>
<path d="M2884 3584 c-9 -76 4 -97 85 -131 82 -35 189 -39 264 -9 27 10 46 20
43 23 -3 3 -38 17 -78 30 -86 29 -226 93 -267 122 -16 12 -31 21 -34 21 -3 0
-9 -25 -13 -56z"/>
<path d="M635 3543 c-13 -16 -42 -50 -64 -76 -58 -69 -65 -120 -25 -182 l16
-25 38 43 c21 23 49 48 62 55 14 8 32 26 42 42 9 16 32 34 51 41 l34 13 -21
30 c-36 53 -71 86 -91 86 -10 0 -29 -12 -42 -27z"/>
<path d="M775 3560 c-4 -6 15 -40 41 -76 50 -72 103 -105 130 -84 28 24 -34
123 -98 156 -32 16 -64 18 -73 4z"/>
<path d="M4141 3553 c-38 -19 -91 -95 -91 -130 0 -30 24 -39 57 -22 28 15 123
135 123 157 0 17 -49 15 -89 -5z"/>
<path d="M4256 3513 l-45 -57 40 -17 c21 -10 44 -29 50 -42 6 -13 28 -34 50
-47 21 -14 39 -27 39 -30 1 -3 11 -18 24 -34 l24 -29 21 41 c37 73 26 112 -67
219 -61 70 -79 70 -136 -4z"/>
<path d="M1117 3509 c59 -101 233 -243 335 -274 73 -21 78 -20 78 18 0 48 -42
128 -84 160 -54 42 -170 92 -253 111 -96 21 -97 21 -76 -15z"/>
<path d="M3778 3515 c-200 -55 -308 -146 -308 -259 0 -37 0 -37 33 -31 17 3
69 24 115 46 65 32 100 58 165 122 45 45 90 97 100 115 17 31 17 32 0 31 -10
0 -57 -11 -105 -24z"/>
<path d="M990 3453 c0 -19 61 -113 86 -132 29 -23 83 -28 102 -9 41 41 -27
100 -165 142 -13 4 -23 4 -23 -1z"/>
<path d="M3940 3441 c-73 -23 -105 -45 -121 -83 -11 -27 -10 -32 6 -44 27 -20
68 -17 97 6 31 24 102 140 85 139 -7 0 -37 -9 -67 -18z"/>
<path d="M385 3380 c4 -41 9 -78 11 -82 6 -9 56 -11 78 -2 14 5 13 10 -4 42
-11 21 -36 55 -56 77 l-36 40 7 -75z"/>
<path d="M4574 3402 c-76 -88 -79 -112 -14 -112 27 0 40 5 45 17 7 21 20 143
14 143 -2 0 -22 -21 -45 -48z"/>
<path d="M754 3387 c-81 -48 -152 -114 -160 -149 -9 -42 4 -113 26 -140 l18
-23 28 29 c16 15 42 35 59 43 16 9 49 33 73 55 23 21 56 41 72 45 17 3 30 7
30 9 0 14 -75 126 -90 134 -23 13 -30 12 -56 -3z"/>
<path d="M4178 3383 c-16 -18 -78 -120 -78 -128 0 -3 11 -5 25 -5 16 0 43 -16
73 -43 26 -24 61 -51 77 -61 17 -10 43 -30 58 -45 28 -26 29 -26 43 -6 22 30
37 95 30 135 -4 24 -17 46 -45 70 -114 101 -152 118 -183 83z"/>
<path d="M895 3343 c9 -40 50 -96 84 -116 40 -23 81 -23 81 2 0 26 -78 111
-117 127 -48 20 -56 18 -48 -13z"/>
<path d="M4054 3356 c-61 -27 -141 -134 -113 -152 17 -10 102 39 130 76 33 42
48 90 28 90 -8 -1 -28 -7 -45 -14z"/>
<path d="M1109 3205 c16 -36 33 -71 40 -78 18 -18 43 15 45 58 1 42 -26 69
-81 80 l-32 6 28 -66z"/>
<path d="M3864 3259 c-48 -14 -68 -42 -60 -83 4 -20 15 -40 26 -46 22 -12 22
-11 64 83 26 60 25 62 -30 46z"/>
<path d="M426 3234 c-19 -19 -21 -102 -3 -154 12 -34 14 -35 57 -32 70 6 77
18 55 99 -10 37 -22 76 -27 86 -11 22 -61 23 -82 1z"/>
<path d="M4504 3242 c-12 -7 -54 -137 -54 -165 0 -17 20 -24 79 -29 31 -3 35
0 47 32 16 45 18 142 2 158 -13 13 -57 16 -74 4z"/>
<path d="M820 3179 c-14 -11 -50 -37 -81 -59 -75 -52 -84 -76 -65 -170 9 -40
17 -75 20 -77 10 -10 164 79 193 112 29 32 36 35 68 29 19 -3 35 -4 35 0 0 13
-52 143 -66 164 -19 28 -69 29 -104 1z"/>
<path d="M4057 3143 c-14 -32 -30 -75 -36 -97 l-10 -38 35 7 c31 5 38 2 67
-30 28 -32 183 -122 193 -112 2 2 10 36 19 75 20 97 11 114 -93 191 -62 46
-90 61 -116 61 -31 0 -35 -4 -59 -57z"/>
<path d="M988 3185 c-8 -9 20 -112 42 -156 19 -37 41 -49 94 -49 26 0 28 2 22
28 -12 49 -60 136 -86 153 -29 20 -64 32 -72 24z"/>
<path d="M3926 3148 c-34 -34 -81 -141 -72 -164 3 -9 15 -10 43 -3 21 5 42 9
46 9 11 0 47 82 63 142 l12 48 -30 0 c-21 0 -40 -10 -62 -32z"/>
<path d="M1180 3068 c0 -3 5 -19 11 -36 12 -34 31 -36 22 -2 -5 17 -33 50 -33
38z"/>
<path d="M3796 3048 c-18 -25 -21 -48 -7 -48 10 0 34 60 27 67 -2 2 -11 -6
-20 -19z"/>
<path d="M485 3011 c-29 -6 -30 -9 -33 -66 -4 -69 2 -98 23 -119 14 -14 21
-13 68 5 29 11 58 25 64 31 17 14 16 51 -1 91 -26 63 -48 74 -121 58z"/>
<path d="M4423 3004 c-25 -21 -50 -102 -40 -128 6 -15 57 -42 115 -60 19 -6
25 -2 39 31 16 39 20 140 5 155 -4 4 -28 11 -53 14 -35 5 -49 2 -66 -12z"/>
<path d="M907 2953 c-15 -16 -57 -44 -94 -63 -103 -53 -146 -130 -129 -225 6
-32 10 -36 29 -32 33 8 327 113 333 120 3 3 -2 44 -12 92 -26 131 -68 167
-127 108z"/>
<path d="M3223 2972 c-7 -5 -9 -13 -4 -21 14 -22 0 -50 -41 -83 l-40 -31 -18
24 -18 24 -7 -28 c-11 -41 0 -57 38 -57 61 0 117 64 117 134 0 37 -9 49 -27
38z"/>
<path d="M4005 2960 c-15 -17 -54 -156 -55 -196 0 -16 107 -60 204 -84 44 -11
90 -27 103 -35 44 -29 53 -21 53 50 0 111 -34 166 -122 194 -20 7 -57 30 -81
51 -50 45 -75 49 -102 20z"/>
<path d="M1750 2948 c0 -36 19 -94 38 -118 20 -25 82 -41 106 -28 16 9 21 34
10 62 -5 14 -8 14 -30 -1 -23 -14 -26 -14 -60 12 -43 33 -49 47 -34 74 9 18 8
21 -10 21 -14 0 -20 -7 -20 -22z"/>
<path d="M1062 2948 c-8 -10 -6 -38 9 -108 12 -52 24 -98 27 -101 4 -4 36 3
72 15 49 16 66 26 67 41 4 27 -46 114 -77 136 -35 25 -84 33 -98 17z"/>
<path d="M3882 2950 c-43 -10 -69 -34 -99 -93 -33 -66 -25 -81 50 -105 34 -10
64 -17 65 -16 2 1 14 44 27 95 17 66 21 98 14 111 -5 10 -13 18 -17 17 -4 -1
-22 -5 -40 -9z"/>
<path d="M538 2792 c-50 -30 -56 -112 -14 -177 l17 -25 35 27 c45 35 64 72 64
121 0 65 -46 90 -102 54z"/>
<path d="M4377 2792 c-10 -11 -17 -36 -17 -61 0 -37 6 -49 49 -93 l48 -51 18
26 c20 31 31 103 21 141 -7 27 -51 56 -84 56 -10 0 -26 -8 -35 -18z"/>
<path d="M1155 2715 c-22 -8 -41 -15 -41 -15 -8 -1 -11 -78 -6 -130 9 -80 26
-87 93 -36 62 47 75 80 57 143 -16 55 -35 63 -103 38z"/>
<path d="M3754 2713 c-39 -64 -24 -125 42 -176 69 -53 87 -48 95 28 11 117 -5
148 -86 160 -32 5 -42 3 -51 -12z"/>
<path d="M884 2656 c-120 -39 -167 -66 -184 -105 -9 -24 -9 -35 2 -58 24 -51
112 -66 221 -37 36 9 75 13 95 9 24 -4 38 -2 43 7 12 19 11 176 -1 199 -15 27
-57 24 -176 -15z"/>
<path d="M3942 2678 c-14 -14 -17 -185 -3 -207 6 -9 20 -11 49 -6 26 4 59 1
93 -9 142 -43 252 10 214 102 -16 38 -57 59 -190 101 -107 33 -144 38 -163 19z"/>
<path d="M588 2583 c-39 -45 -26 -101 32 -143 l30 -21 0 78 c0 98 -23 130 -62
86z"/>
<path d="M4357 2593 c-4 -3 -7 -45 -7 -92 l0 -86 42 42 c46 47 54 88 23 123
-18 20 -45 26 -58 13z"/>
<path d="M1174 2478 c-50 -34 -63 -57 -78 -142 -9 -46 -5 -45 78 8 44 28 57
43 67 75 12 39 6 91 -10 91 -5 0 -31 -15 -57 -32z"/>
<path d="M3760 2495 c-15 -18 -8 -88 10 -110 15 -18 130 -89 135 -83 2 2 -2
33 -9 68 -14 66 -27 82 -95 123 -25 15 -30 15 -41 2z"/>
<path d="M880 2414 c-58 -11 -86 -12 -123 -3 -26 6 -50 10 -52 8 -8 -9 26 -84
48 -106 28 -28 69 -39 189 -48 100 -8 99 -10 113 94 5 40 4 56 -6 62 -19 12
-79 9 -169 -7z"/>
<path d="M3956 2423 c-16 -4 -18 -11 -12 -61 13 -113 4 -106 121 -99 57 3 118
12 138 20 61 26 123 149 67 133 -11 -3 -28 -8 -39 -11 -10 -3 -58 1 -106 10
-87 15 -133 17 -169 8z"/>
<path d="M1160 2289 c-35 -14 -59 -37 -92 -88 -36 -57 -35 -65 2 -46 34 17 86
68 119 114 24 33 17 38 -29 20z"/>
<path d="M3808 2273 c47 -65 152 -151 152 -124 0 5 -15 31 -32 57 -35 52 -89
94 -120 94 -19 0 -19 -1 0 -27z"/>
<path d="M766 2247 c20 -34 44 -49 116 -72 44 -14 85 -25 93 -25 7 0 22 15 34
33 19 30 19 33 3 39 -9 4 -54 7 -100 7 -48 1 -97 7 -118 16 -24 10 -33 11 -28
2z"/>
<path d="M4200 2244 c-19 -7 -71 -13 -115 -14 -44 -1 -88 -4 -97 -8 -16 -6
-16 -9 3 -39 12 -18 29 -33 38 -33 24 0 161 47 178 62 12 10 39 50 31 47 -2
-1 -19 -7 -38 -15z"/>
<path d="M4099 1527 c-187 -70 -274 -268 -194 -444 30 -69 86 -127 157 -165
36 -19 58 -23 138 -23 83 0 101 3 145 27 62 32 129 103 158 166 17 36 22 66
22 132 0 73 -4 92 -28 138 -34 65 -93 123 -155 154 -57 28 -186 36 -243 15z
m218 -75 c59 -31 120 -105 139 -169 58 -200 -139 -385 -338 -317 -175 59 -236
283 -115 420 38 43 75 68 127 85 42 14 142 3 187 -19z"/>
<path d="M650 1385 c-168 -58 -311 -107 -319 -110 -11 -4 -9 -10 8 -28 l21
-23 105 35 105 36 66 -65 c36 -36 78 -81 94 -101 l29 -36 -40 -103 -41 -103
21 -20 c11 -12 23 -19 25 -16 8 7 246 619 246 630 0 5 -3 9 -7 8 -5 0 -145
-47 -313 -104z m215 -14 c-3 -10 -22 -62 -43 -115 l-37 -96 -75 75 c-41 41
-71 77 -68 80 7 7 199 73 216 74 9 1 11 -6 7 -18z"/>
<path d="M1031 1011 c-83 -137 -153 -256 -156 -264 -4 -9 21 -30 78 -65 124
-76 190 -104 263 -110 55 -4 71 -1 118 22 104 51 186 180 186 292 0 126 -51
201 -207 304 -59 38 -113 70 -119 70 -7 0 -80 -112 -163 -249z m250 128 c88
-56 127 -95 155 -154 40 -83 26 -165 -41 -257 -58 -79 -136 -107 -231 -82 -53
14 -217 102 -212 114 13 28 254 420 259 420 3 0 35 -18 70 -41z"/>
<path d="M3695 1191 c-28 -16 -33 -31 -69 -172 -22 -85 -42 -160 -46 -168 -7
-13 -53 57 -104 156 -9 17 -20 34 -26 38 -11 7 -50 -12 -50 -24 0 -8 287 -520
299 -533 3 -4 17 1 30 11 l24 18 -71 125 c-40 69 -72 128 -72 131 0 3 87 -24
194 -59 l194 -65 32 19 32 20 -204 67 c-112 37 -207 71 -212 76 -6 5 10 81 38
190 26 100 46 183 44 185 -2 2 -17 -5 -33 -15z"/>
<path d="M1603 688 c-51 -161 -89 -296 -85 -299 4 -4 17 -10 29 -13 21 -7 25
1 64 129 58 185 62 183 142 -39 58 -161 62 -169 95 -183 19 -8 36 -13 37 -11
2 2 -25 77 -59 168 l-62 165 89 0 88 0 34 37 c84 91 61 205 -51 262 -27 13
-213 76 -225 76 -3 0 -46 -132 -96 -292z m229 186 c54 -18 85 -34 103 -55 57
-68 12 -159 -78 -159 -52 0 -177 36 -177 51 0 27 55 189 64 189 6 0 46 -12 88
-26z"/>
<path d="M3283 973 c-13 -2 -23 -7 -23 -11 0 -4 29 -107 64 -229 35 -123 62
-223 60 -223 -2 0 -120 77 -264 171 -144 94 -263 169 -265 167 -4 -4 71 -276
146 -531 19 -65 21 -67 47 -61 15 4 28 8 29 9 2 1 -26 101 -61 224 -35 122
-59 220 -52 218 6 -3 123 -77 260 -166 137 -88 253 -161 258 -161 5 0 6 10 3
21 -9 29 -165 573 -165 576 0 3 -1 3 -37 -4z"/>
<path d="M2150 857 c0 -1 -20 -135 -45 -296 -25 -161 -45 -299 -45 -307 0 -9
11 -14 29 -14 34 0 25 -36 81 334 43 282 43 285 -2 286 -10 0 -18 -1 -18 -3z"/>
<path d="M2400 528 c-73 -167 -135 -306 -137 -310 -2 -5 11 -8 29 -8 32 0 34
3 76 99 l43 98 91 7 c50 3 112 6 137 6 l47 0 49 -100 c47 -96 51 -100 82 -100
l32 0 -147 302 c-81 166 -152 303 -158 305 -6 2 -70 -133 -144 -299z m199 65
c28 -58 49 -108 47 -110 -3 -3 -50 -7 -106 -10 l-101 -6 10 24 c5 13 23 56 41
94 18 39 36 80 41 93 5 12 11 22 13 22 2 0 27 -48 55 -107z"/>
</g>
</svg>
